<svg xmlns="http://www.w3.org/2000/svg" viewBox="0 0 128 128" width="128" height="128">
  <!-- Shadow -->
  <rect x="14" y="42" width="104" height="72" rx="10" ry="10" fill="#11111b" opacity="0.4"/>

  <!-- Folder body -->
  <rect x="10" y="38" width="108" height="74" rx="10" ry="10" fill="#1e1e2e"/>
  <rect x="10" y="38" width="108" height="74" rx="10" ry="10" fill="none" stroke="#89b4fa" stroke-width="2.5" opacity="0.7"/>

  <!-- Folder tab -->
  <path d="M10 38 L10 28 Q10 20 18 20 L44 20 Q50 20 54 26 L58 34 Q59 38 56 38 Z" fill="#1e1e2e"/>
  <path d="M10 38 L10 28 Q10 20 18 20 L44 20 Q50 20 54 26 L58 34 Q59 38 56 38" fill="none" stroke="#89b4fa" stroke-width="2.5" opacity="0.7"/>

  <!-- File lines -->
  <rect x="28" y="56" width="40" height="3" rx="1.5" fill="#89b4fa" opacity="0.5"/>
  <rect x="28" y="65" width="52" height="3" rx="1.5" fill="#cba6f7" opacity="0.4"/>
  <rect x="28" y="74" width="34" height="3" rx="1.5" fill="#89b4fa" opacity="0.3"/>
  <rect x="28" y="83" width="46" height="3" rx="1.5" fill="#cba6f7" opacity="0.25"/>

  <!-- Grid dots -->
  <circle cx="88" cy="58" r="3.5" fill="#94e2d5" opacity="0.5"/>
  <circle cx="100" cy="58" r="3.5" fill="#94e2d5" opacity="0.4"/>
  <circle cx="88" cy="70" r="3.5" fill="#94e2d5" opacity="0.35"/>
  <circle cx="100" cy="70" r="3.5" fill="#94e2d5" opacity="0.3"/>
</svg>
